<mxfile host="Electron" modified="2023-07-13T06:04:10.658Z" agent="Mozilla/5.0 (Windows NT 10.0; Win64; x64) AppleWebKit/537.36 (KHTML, like Gecko) draw.io/21.6.1 Chrome/112.0.5615.204 Electron/24.6.1 Safari/537.36" etag="jWxmXhQR3ynE6GAWeFVo" version="21.6.1" type="device">
  <diagram name="Peripheral Overview" id="wyJS0wY3VDMjycD1PFRl">
    <mxGraphModel dx="792" dy="1230" grid="1" gridSize="10" guides="1" tooltips="1" connect="1" arrows="1" fold="1" page="1" pageScale="1" pageWidth="1100" pageHeight="850" math="0" shadow="0">
      <root>
        <mxCell id="0" />
        <mxCell id="1" parent="0" />
        <mxCell id="JnMU-w9qaVQYB5pslUgb-23" style="edgeStyle=orthogonalEdgeStyle;rounded=0;orthogonalLoop=1;jettySize=auto;html=1;exitX=1;exitY=0.75;exitDx=0;exitDy=0;entryX=0;entryY=0.5;entryDx=0;entryDy=0;labelBackgroundColor=none;fontColor=default;" parent="1" source="JnMU-w9qaVQYB5pslUgb-1" target="JnMU-w9qaVQYB5pslUgb-17" edge="1">
          <mxGeometry relative="1" as="geometry" />
        </mxCell>
        <mxCell id="JnMU-w9qaVQYB5pslUgb-24" style="edgeStyle=orthogonalEdgeStyle;rounded=0;orthogonalLoop=1;jettySize=auto;html=1;exitX=1;exitY=0.25;exitDx=0;exitDy=0;entryX=0;entryY=0.5;entryDx=0;entryDy=0;labelBackgroundColor=none;fontColor=default;" parent="1" source="JnMU-w9qaVQYB5pslUgb-1" target="JnMU-w9qaVQYB5pslUgb-16" edge="1">
          <mxGeometry relative="1" as="geometry" />
        </mxCell>
        <mxCell id="JnMU-w9qaVQYB5pslUgb-1" value="PWM2&lt;br&gt;(Default 50 Hz)" style="rounded=0;whiteSpace=wrap;html=1;labelBackgroundColor=none;" parent="1" vertex="1">
          <mxGeometry x="360" y="520" width="120" height="60" as="geometry" />
        </mxCell>
        <mxCell id="JnMU-w9qaVQYB5pslUgb-13" style="edgeStyle=orthogonalEdgeStyle;rounded=0;orthogonalLoop=1;jettySize=auto;html=1;exitX=1;exitY=0.25;exitDx=0;exitDy=0;entryX=0;entryY=0.5;entryDx=0;entryDy=0;labelBackgroundColor=none;fontColor=default;" parent="1" source="JnMU-w9qaVQYB5pslUgb-2" target="JnMU-w9qaVQYB5pslUgb-11" edge="1">
          <mxGeometry relative="1" as="geometry" />
        </mxCell>
        <mxCell id="JnMU-w9qaVQYB5pslUgb-15" style="edgeStyle=orthogonalEdgeStyle;rounded=0;orthogonalLoop=1;jettySize=auto;html=1;exitX=1;exitY=0.75;exitDx=0;exitDy=0;entryX=0;entryY=0.5;entryDx=0;entryDy=0;labelBackgroundColor=none;fontColor=default;" parent="1" source="JnMU-w9qaVQYB5pslUgb-2" target="JnMU-w9qaVQYB5pslUgb-14" edge="1">
          <mxGeometry relative="1" as="geometry" />
        </mxCell>
        <mxCell id="JnMU-w9qaVQYB5pslUgb-2" value="PWM1&lt;br&gt;(Default 50 Hz)" style="rounded=0;whiteSpace=wrap;html=1;labelBackgroundColor=none;" parent="1" vertex="1">
          <mxGeometry x="360" y="450" width="120" height="60" as="geometry" />
        </mxCell>
        <mxCell id="JnMU-w9qaVQYB5pslUgb-20" style="edgeStyle=orthogonalEdgeStyle;rounded=0;orthogonalLoop=1;jettySize=auto;html=1;exitX=1;exitY=0.25;exitDx=0;exitDy=0;entryX=0;entryY=0.5;entryDx=0;entryDy=0;labelBackgroundColor=none;fontColor=default;" parent="1" source="JnMU-w9qaVQYB5pslUgb-3" target="JnMU-w9qaVQYB5pslUgb-18" edge="1">
          <mxGeometry relative="1" as="geometry" />
        </mxCell>
        <mxCell id="JnMU-w9qaVQYB5pslUgb-21" style="edgeStyle=orthogonalEdgeStyle;rounded=0;orthogonalLoop=1;jettySize=auto;html=1;exitX=1;exitY=0.75;exitDx=0;exitDy=0;entryX=0;entryY=0.5;entryDx=0;entryDy=0;labelBackgroundColor=none;fontColor=default;" parent="1" source="JnMU-w9qaVQYB5pslUgb-3" target="JnMU-w9qaVQYB5pslUgb-19" edge="1">
          <mxGeometry relative="1" as="geometry" />
        </mxCell>
        <mxCell id="JnMU-w9qaVQYB5pslUgb-3" value="PWM3&lt;br&gt;(Default 50 Hz)" style="rounded=0;whiteSpace=wrap;html=1;labelBackgroundColor=none;" parent="1" vertex="1">
          <mxGeometry x="360" y="590" width="120" height="60" as="geometry" />
        </mxCell>
        <mxCell id="JnMU-w9qaVQYB5pslUgb-8" style="edgeStyle=orthogonalEdgeStyle;rounded=0;orthogonalLoop=1;jettySize=auto;html=1;exitX=0.5;exitY=1;exitDx=0;exitDy=0;entryX=0.5;entryY=0;entryDx=0;entryDy=0;labelBackgroundColor=none;fontColor=default;" parent="1" source="JnMU-w9qaVQYB5pslUgb-4" target="JnMU-w9qaVQYB5pslUgb-5" edge="1">
          <mxGeometry relative="1" as="geometry" />
        </mxCell>
        <mxCell id="JnMU-w9qaVQYB5pslUgb-28" style="edgeStyle=orthogonalEdgeStyle;rounded=0;orthogonalLoop=1;jettySize=auto;html=1;exitX=1;exitY=0.5;exitDx=0;exitDy=0;entryX=0;entryY=0.5;entryDx=0;entryDy=0;endArrow=none;endFill=0;labelBackgroundColor=none;fontColor=default;" parent="1" source="JnMU-w9qaVQYB5pslUgb-4" target="JnMU-w9qaVQYB5pslUgb-26" edge="1">
          <mxGeometry relative="1" as="geometry">
            <mxPoint x="320.0190265095414" y="549.5642212862617" as="targetPoint" />
          </mxGeometry>
        </mxCell>
        <mxCell id="VtxOJkRG5hKtJTxu8GJh-2" style="edgeStyle=orthogonalEdgeStyle;rounded=0;orthogonalLoop=1;jettySize=auto;html=1;exitX=0.5;exitY=0;exitDx=0;exitDy=0;entryX=0.5;entryY=1;entryDx=0;entryDy=0;" edge="1" parent="1" source="JnMU-w9qaVQYB5pslUgb-4" target="VtxOJkRG5hKtJTxu8GJh-1">
          <mxGeometry relative="1" as="geometry" />
        </mxCell>
        <mxCell id="JnMU-w9qaVQYB5pslUgb-4" value="LFINTOSC&lt;br&gt;(31 kHz)" style="rounded=0;whiteSpace=wrap;html=1;labelBackgroundColor=none;" parent="1" vertex="1">
          <mxGeometry x="190" y="520" width="120" height="60" as="geometry" />
        </mxCell>
        <mxCell id="x3cBH1kzOnK8eQ14zxX7-6" style="edgeStyle=orthogonalEdgeStyle;rounded=0;orthogonalLoop=1;jettySize=auto;html=1;exitX=0;exitY=0.5;exitDx=0;exitDy=0;entryX=1;entryY=0.5;entryDx=0;entryDy=0;" parent="1" source="JnMU-w9qaVQYB5pslUgb-5" target="x3cBH1kzOnK8eQ14zxX7-4" edge="1">
          <mxGeometry relative="1" as="geometry" />
        </mxCell>
        <mxCell id="JnMU-w9qaVQYB5pslUgb-5" value="NCO1&lt;br&gt;(1 Hz)" style="rounded=0;whiteSpace=wrap;html=1;labelBackgroundColor=none;" parent="1" vertex="1">
          <mxGeometry x="190" y="590" width="120" height="60" as="geometry" />
        </mxCell>
        <mxCell id="JnMU-w9qaVQYB5pslUgb-6" value="TMR2&lt;br&gt;(EXT_LED Timeout)" style="rounded=0;whiteSpace=wrap;html=1;labelBackgroundColor=none;" parent="1" vertex="1">
          <mxGeometry x="120" y="680" width="120" height="60" as="geometry" />
        </mxCell>
        <mxCell id="JnMU-w9qaVQYB5pslUgb-7" value="TMR4&lt;br&gt;(PUMP_EN Timeout)" style="rounded=0;whiteSpace=wrap;html=1;labelBackgroundColor=none;" parent="1" vertex="1">
          <mxGeometry x="262.5" y="680" width="120" height="60" as="geometry" />
        </mxCell>
        <mxCell id="JnMU-w9qaVQYB5pslUgb-11" value="SERVO1" style="rounded=0;whiteSpace=wrap;html=1;labelBackgroundColor=none;" parent="1" vertex="1">
          <mxGeometry x="510" y="450" width="120" height="30" as="geometry" />
        </mxCell>
        <mxCell id="JnMU-w9qaVQYB5pslUgb-14" value="SERVO2" style="rounded=0;whiteSpace=wrap;html=1;labelBackgroundColor=none;" parent="1" vertex="1">
          <mxGeometry x="510" y="480" width="120" height="30" as="geometry" />
        </mxCell>
        <mxCell id="JnMU-w9qaVQYB5pslUgb-16" value="SERVO3" style="rounded=0;whiteSpace=wrap;html=1;labelBackgroundColor=none;" parent="1" vertex="1">
          <mxGeometry x="510" y="520" width="120" height="30" as="geometry" />
        </mxCell>
        <mxCell id="JnMU-w9qaVQYB5pslUgb-17" value="SERVO4" style="rounded=0;whiteSpace=wrap;html=1;labelBackgroundColor=none;" parent="1" vertex="1">
          <mxGeometry x="510" y="550" width="120" height="30" as="geometry" />
        </mxCell>
        <mxCell id="JnMU-w9qaVQYB5pslUgb-18" value="SERVO5" style="rounded=0;whiteSpace=wrap;html=1;labelBackgroundColor=none;" parent="1" vertex="1">
          <mxGeometry x="510" y="590" width="120" height="30" as="geometry" />
        </mxCell>
        <mxCell id="JnMU-w9qaVQYB5pslUgb-19" value="SERVO6" style="rounded=0;whiteSpace=wrap;html=1;labelBackgroundColor=none;" parent="1" vertex="1">
          <mxGeometry x="510" y="620" width="120" height="30" as="geometry" />
        </mxCell>
        <mxCell id="JnMU-w9qaVQYB5pslUgb-29" style="edgeStyle=orthogonalEdgeStyle;rounded=0;orthogonalLoop=1;jettySize=auto;html=1;exitX=0.5;exitY=0;exitDx=0;exitDy=0;entryX=0;entryY=0.5;entryDx=0;entryDy=0;labelBackgroundColor=none;fontColor=default;" parent="1" source="JnMU-w9qaVQYB5pslUgb-26" target="JnMU-w9qaVQYB5pslUgb-2" edge="1">
          <mxGeometry relative="1" as="geometry" />
        </mxCell>
        <mxCell id="JnMU-w9qaVQYB5pslUgb-30" style="edgeStyle=orthogonalEdgeStyle;rounded=0;orthogonalLoop=1;jettySize=auto;html=1;exitX=1;exitY=0.5;exitDx=0;exitDy=0;entryX=0;entryY=0.5;entryDx=0;entryDy=0;labelBackgroundColor=none;fontColor=default;" parent="1" source="JnMU-w9qaVQYB5pslUgb-26" target="JnMU-w9qaVQYB5pslUgb-1" edge="1">
          <mxGeometry relative="1" as="geometry" />
        </mxCell>
        <mxCell id="JnMU-w9qaVQYB5pslUgb-31" style="edgeStyle=orthogonalEdgeStyle;rounded=0;orthogonalLoop=1;jettySize=auto;html=1;exitX=0.5;exitY=1;exitDx=0;exitDy=0;entryX=0;entryY=0.5;entryDx=0;entryDy=0;labelBackgroundColor=none;fontColor=default;" parent="1" source="JnMU-w9qaVQYB5pslUgb-26" target="JnMU-w9qaVQYB5pslUgb-3" edge="1">
          <mxGeometry relative="1" as="geometry" />
        </mxCell>
        <mxCell id="JnMU-w9qaVQYB5pslUgb-26" value="" style="ellipse;whiteSpace=wrap;html=1;aspect=fixed;rotation=5;labelBackgroundColor=none;fillColor=#000000;" parent="1" vertex="1">
          <mxGeometry x="330.23" y="547.5" width="5" height="5" as="geometry" />
        </mxCell>
        <mxCell id="JnMU-w9qaVQYB5pslUgb-35" style="edgeStyle=orthogonalEdgeStyle;rounded=0;orthogonalLoop=1;jettySize=auto;html=1;exitX=1;exitY=0.5;exitDx=0;exitDy=0;entryX=0.5;entryY=0;entryDx=0;entryDy=0;labelBackgroundColor=none;fontColor=default;" parent="1" source="JnMU-w9qaVQYB5pslUgb-32" target="JnMU-w9qaVQYB5pslUgb-7" edge="1">
          <mxGeometry relative="1" as="geometry" />
        </mxCell>
        <mxCell id="JnMU-w9qaVQYB5pslUgb-36" style="edgeStyle=orthogonalEdgeStyle;rounded=0;orthogonalLoop=1;jettySize=auto;html=1;exitX=0;exitY=0.5;exitDx=0;exitDy=0;entryX=0.5;entryY=0;entryDx=0;entryDy=0;labelBackgroundColor=none;fontColor=default;" parent="1" source="JnMU-w9qaVQYB5pslUgb-32" target="JnMU-w9qaVQYB5pslUgb-6" edge="1">
          <mxGeometry relative="1" as="geometry" />
        </mxCell>
        <mxCell id="JnMU-w9qaVQYB5pslUgb-41" value="" style="edgeStyle=none;rounded=0;orthogonalLoop=1;jettySize=auto;html=1;exitX=0.5;exitY=1;exitDx=0;exitDy=0;endArrow=none;endFill=0;labelBackgroundColor=none;fontColor=default;" parent="1" source="JnMU-w9qaVQYB5pslUgb-5" target="JnMU-w9qaVQYB5pslUgb-32" edge="1">
          <mxGeometry relative="1" as="geometry">
            <mxPoint x="250.1428571428571" y="670" as="targetPoint" />
            <mxPoint x="250" y="650" as="sourcePoint" />
          </mxGeometry>
        </mxCell>
        <mxCell id="JnMU-w9qaVQYB5pslUgb-32" value="" style="ellipse;whiteSpace=wrap;html=1;aspect=fixed;rotation=5;labelBackgroundColor=none;fillColor=#000000;" parent="1" vertex="1">
          <mxGeometry x="247.5" y="655" width="5" height="5" as="geometry" />
        </mxCell>
        <mxCell id="JnMU-w9qaVQYB5pslUgb-47" style="edgeStyle=orthogonalEdgeStyle;rounded=0;orthogonalLoop=1;jettySize=auto;html=1;exitX=1;exitY=0.5;exitDx=0;exitDy=0;exitPerimeter=0;entryX=0;entryY=0.5;entryDx=0;entryDy=0;endArrow=none;endFill=0;labelBackgroundColor=none;fontColor=default;" parent="1" source="JnMU-w9qaVQYB5pslUgb-44" target="JnMU-w9qaVQYB5pslUgb-46" edge="1">
          <mxGeometry relative="1" as="geometry" />
        </mxCell>
        <mxCell id="JnMU-w9qaVQYB5pslUgb-60" style="edgeStyle=orthogonalEdgeStyle;rounded=0;orthogonalLoop=1;jettySize=auto;html=1;exitX=0;exitY=0.165;exitDx=0;exitDy=0;exitPerimeter=0;entryX=0.5;entryY=1;entryDx=0;entryDy=0;endArrow=none;endFill=0;labelBackgroundColor=none;fontColor=default;entryPerimeter=0;" parent="1" source="JnMU-w9qaVQYB5pslUgb-44" target="Xnha2yoSLHK6knwXPfEw-34" edge="1">
          <mxGeometry relative="1" as="geometry">
            <mxPoint x="338" y="310" as="targetPoint" />
            <Array as="points">
              <mxPoint x="350" y="275" />
            </Array>
          </mxGeometry>
        </mxCell>
        <mxCell id="Xnha2yoSLHK6knwXPfEw-6" style="edgeStyle=orthogonalEdgeStyle;rounded=0;orthogonalLoop=1;jettySize=auto;html=1;exitX=0.612;exitY=0.11;exitDx=0;exitDy=0;exitPerimeter=0;entryX=0.5;entryY=0;entryDx=0;entryDy=0;entryPerimeter=0;endArrow=none;endFill=0;" parent="1" source="JnMU-w9qaVQYB5pslUgb-44" edge="1">
          <mxGeometry relative="1" as="geometry">
            <mxPoint x="420" y="290" as="targetPoint" />
          </mxGeometry>
        </mxCell>
        <mxCell id="Xnha2yoSLHK6knwXPfEw-8" style="edgeStyle=orthogonalEdgeStyle;rounded=0;orthogonalLoop=1;jettySize=auto;html=1;exitX=0;exitY=0.835;exitDx=0;exitDy=0;exitPerimeter=0;entryX=0;entryY=0.5;entryDx=0;entryDy=0;endArrow=none;endFill=0;" parent="1" source="JnMU-w9qaVQYB5pslUgb-44" target="Xnha2yoSLHK6knwXPfEw-7" edge="1">
          <mxGeometry relative="1" as="geometry" />
        </mxCell>
        <mxCell id="JnMU-w9qaVQYB5pslUgb-44" value="" style="verticalLabelPosition=bottom;shadow=0;dashed=0;align=center;html=1;verticalAlign=top;shape=mxgraph.electrical.abstract.operational_amp_1;flipV=1;labelBackgroundColor=none;" parent="1" vertex="1">
          <mxGeometry x="360" y="200" width="98" height="90" as="geometry" />
        </mxCell>
        <mxCell id="JnMU-w9qaVQYB5pslUgb-48" value="" style="edgeStyle=orthogonalEdgeStyle;rounded=0;orthogonalLoop=1;jettySize=auto;html=1;endArrow=none;endFill=0;labelBackgroundColor=none;fontColor=default;" parent="1" source="JnMU-w9qaVQYB5pslUgb-46" target="JnMU-w9qaVQYB5pslUgb-44" edge="1">
          <mxGeometry relative="1" as="geometry" />
        </mxCell>
        <mxCell id="JnMU-w9qaVQYB5pslUgb-59" style="edgeStyle=orthogonalEdgeStyle;rounded=0;orthogonalLoop=1;jettySize=auto;html=1;exitX=0.5;exitY=1;exitDx=0;exitDy=0;endArrow=none;endFill=0;labelBackgroundColor=none;fontColor=default;entryX=0;entryY=0.25;entryDx=0;entryDy=0;entryPerimeter=0;" parent="1" source="JnMU-w9qaVQYB5pslUgb-46" edge="1">
          <mxGeometry relative="1" as="geometry">
            <mxPoint x="400" y="340" as="targetPoint" />
            <Array as="points">
              <mxPoint x="492" y="340" />
            </Array>
          </mxGeometry>
        </mxCell>
        <mxCell id="Xnha2yoSLHK6knwXPfEw-25" style="edgeStyle=orthogonalEdgeStyle;rounded=0;orthogonalLoop=1;jettySize=auto;html=1;exitX=1;exitY=0.5;exitDx=0;exitDy=0;entryX=1;entryY=0.5;entryDx=0;entryDy=0;entryPerimeter=0;endArrow=none;endFill=0;" parent="1" source="JnMU-w9qaVQYB5pslUgb-46" target="Xnha2yoSLHK6knwXPfEw-24" edge="1">
          <mxGeometry relative="1" as="geometry" />
        </mxCell>
        <mxCell id="JnMU-w9qaVQYB5pslUgb-46" value="" style="ellipse;whiteSpace=wrap;html=1;aspect=fixed;rotation=5;labelBackgroundColor=none;fillColor=#000000;" parent="1" vertex="1">
          <mxGeometry x="490" y="242.5" width="5" height="5" as="geometry" />
        </mxCell>
        <mxCell id="Xnha2yoSLHK6knwXPfEw-5" style="edgeStyle=orthogonalEdgeStyle;rounded=0;orthogonalLoop=1;jettySize=auto;html=1;exitX=0.58;exitY=0.935;exitDx=0;exitDy=0;exitPerimeter=0;entryX=0.5;entryY=0;entryDx=0;entryDy=0;entryPerimeter=0;endArrow=none;endFill=0;" parent="1" source="JnMU-w9qaVQYB5pslUgb-51" target="Xnha2yoSLHK6knwXPfEw-4" edge="1">
          <mxGeometry relative="1" as="geometry" />
        </mxCell>
        <mxCell id="Xnha2yoSLHK6knwXPfEw-42" style="edgeStyle=orthogonalEdgeStyle;rounded=0;orthogonalLoop=1;jettySize=auto;html=1;exitX=0.58;exitY=0.135;exitDx=0;exitDy=0;exitPerimeter=0;entryX=0.5;entryY=1;entryDx=0;entryDy=0;endArrow=none;endFill=0;" parent="1" source="JnMU-w9qaVQYB5pslUgb-51" target="Xnha2yoSLHK6knwXPfEw-41" edge="1">
          <mxGeometry relative="1" as="geometry" />
        </mxCell>
        <mxCell id="JnMU-w9qaVQYB5pslUgb-51" value="" style="pointerEvents=1;verticalLabelPosition=bottom;shadow=0;dashed=0;align=center;html=1;verticalAlign=top;shape=mxgraph.electrical.signal_sources.dc_source_1;flipH=1;labelBackgroundColor=none;" parent="1" vertex="1">
          <mxGeometry x="497.5" y="100" width="50" height="50" as="geometry" />
        </mxCell>
        <mxCell id="f0JJ9L98PvGZfma4CgXc-1" style="edgeStyle=orthogonalEdgeStyle;rounded=0;orthogonalLoop=1;jettySize=auto;html=1;exitX=1;exitY=0.25;exitDx=0;exitDy=0;exitPerimeter=0;entryX=0.5;entryY=0;entryDx=0;entryDy=0;entryPerimeter=0;endArrow=none;endFill=0;" parent="1" target="Xnha2yoSLHK6knwXPfEw-23" edge="1">
          <mxGeometry relative="1" as="geometry">
            <mxPoint x="300" y="340" as="sourcePoint" />
            <mxPoint x="212.5" y="360" as="targetPoint" />
          </mxGeometry>
        </mxCell>
        <mxCell id="Xnha2yoSLHK6knwXPfEw-4" value="" style="pointerEvents=1;verticalLabelPosition=bottom;shadow=0;dashed=0;align=center;html=1;verticalAlign=top;shape=mxgraph.electrical.signal_sources.signal_ground;labelBackgroundColor=none;" parent="1" vertex="1">
          <mxGeometry x="508.75" y="160" width="22.5" height="20" as="geometry" />
        </mxCell>
        <mxCell id="Xnha2yoSLHK6knwXPfEw-7" value="" style="html=1;shape=mxgraph.electrical.electro-mechanical.twoWaySwitch;aspect=fixed;elSwitchState=2;rotation=-180;" parent="1" vertex="1">
          <mxGeometry x="267.5" y="202" width="75" height="26" as="geometry" />
        </mxCell>
        <mxCell id="Xnha2yoSLHK6knwXPfEw-15" value="" style="group" parent="1" vertex="1" connectable="0">
          <mxGeometry x="227.5" y="180" width="20" height="20" as="geometry" />
        </mxCell>
        <mxCell id="Xnha2yoSLHK6knwXPfEw-9" value="" style="whiteSpace=wrap;html=1;aspect=fixed;" parent="Xnha2yoSLHK6knwXPfEw-15" vertex="1">
          <mxGeometry width="20" height="20" as="geometry" />
        </mxCell>
        <mxCell id="Xnha2yoSLHK6knwXPfEw-12" style="edgeStyle=none;rounded=0;orthogonalLoop=1;jettySize=auto;html=1;exitX=0;exitY=0;exitDx=0;exitDy=0;entryX=1;entryY=1;entryDx=0;entryDy=0;endArrow=none;endFill=0;" parent="Xnha2yoSLHK6knwXPfEw-15" source="Xnha2yoSLHK6knwXPfEw-9" target="Xnha2yoSLHK6knwXPfEw-9" edge="1">
          <mxGeometry relative="1" as="geometry">
            <Array as="points">
              <mxPoint x="20" y="20" />
            </Array>
          </mxGeometry>
        </mxCell>
        <mxCell id="Xnha2yoSLHK6knwXPfEw-14" style="edgeStyle=none;rounded=0;orthogonalLoop=1;jettySize=auto;html=1;exitX=1;exitY=0;exitDx=0;exitDy=0;entryX=0;entryY=1;entryDx=0;entryDy=0;endArrow=none;endFill=0;" parent="Xnha2yoSLHK6knwXPfEw-15" source="Xnha2yoSLHK6knwXPfEw-9" target="Xnha2yoSLHK6knwXPfEw-9" edge="1">
          <mxGeometry relative="1" as="geometry" />
        </mxCell>
        <mxCell id="Xnha2yoSLHK6knwXPfEw-16" value="" style="group" parent="1" vertex="1" connectable="0">
          <mxGeometry x="227.5" y="230" width="20" height="20" as="geometry" />
        </mxCell>
        <mxCell id="Xnha2yoSLHK6knwXPfEw-17" value="" style="whiteSpace=wrap;html=1;aspect=fixed;" parent="Xnha2yoSLHK6knwXPfEw-16" vertex="1">
          <mxGeometry width="20" height="20" as="geometry" />
        </mxCell>
        <mxCell id="Xnha2yoSLHK6knwXPfEw-18" style="edgeStyle=none;rounded=0;orthogonalLoop=1;jettySize=auto;html=1;exitX=0;exitY=0;exitDx=0;exitDy=0;entryX=1;entryY=1;entryDx=0;entryDy=0;endArrow=none;endFill=0;" parent="Xnha2yoSLHK6knwXPfEw-16" source="Xnha2yoSLHK6knwXPfEw-17" target="Xnha2yoSLHK6knwXPfEw-17" edge="1">
          <mxGeometry relative="1" as="geometry">
            <Array as="points">
              <mxPoint x="20" y="20" />
            </Array>
          </mxGeometry>
        </mxCell>
        <mxCell id="Xnha2yoSLHK6knwXPfEw-19" style="edgeStyle=none;rounded=0;orthogonalLoop=1;jettySize=auto;html=1;exitX=1;exitY=0;exitDx=0;exitDy=0;entryX=0;entryY=1;entryDx=0;entryDy=0;endArrow=none;endFill=0;" parent="Xnha2yoSLHK6knwXPfEw-16" source="Xnha2yoSLHK6knwXPfEw-17" target="Xnha2yoSLHK6knwXPfEw-17" edge="1">
          <mxGeometry relative="1" as="geometry" />
        </mxCell>
        <mxCell id="Xnha2yoSLHK6knwXPfEw-20" style="edgeStyle=orthogonalEdgeStyle;rounded=0;orthogonalLoop=1;jettySize=auto;html=1;exitX=1;exitY=0.5;exitDx=0;exitDy=0;entryX=1;entryY=0.12;entryDx=0;entryDy=0;endArrow=none;endFill=0;" parent="1" source="Xnha2yoSLHK6knwXPfEw-17" target="Xnha2yoSLHK6knwXPfEw-7" edge="1">
          <mxGeometry relative="1" as="geometry" />
        </mxCell>
        <mxCell id="Xnha2yoSLHK6knwXPfEw-21" style="edgeStyle=orthogonalEdgeStyle;rounded=0;orthogonalLoop=1;jettySize=auto;html=1;exitX=1;exitY=0.5;exitDx=0;exitDy=0;entryX=1;entryY=0.88;entryDx=0;entryDy=0;endArrow=none;endFill=0;" parent="1" source="Xnha2yoSLHK6knwXPfEw-9" target="Xnha2yoSLHK6knwXPfEw-7" edge="1">
          <mxGeometry relative="1" as="geometry" />
        </mxCell>
        <mxCell id="Xnha2yoSLHK6knwXPfEw-22" value="" style="pointerEvents=1;verticalLabelPosition=bottom;shadow=0;dashed=0;align=center;html=1;verticalAlign=top;shape=mxgraph.electrical.signal_sources.signal_ground;labelBackgroundColor=none;" parent="1" vertex="1">
          <mxGeometry x="408.75" y="290" width="22.5" height="20" as="geometry" />
        </mxCell>
        <mxCell id="Xnha2yoSLHK6knwXPfEw-23" value="" style="pointerEvents=1;verticalLabelPosition=bottom;shadow=0;dashed=0;align=center;html=1;verticalAlign=top;shape=mxgraph.electrical.signal_sources.signal_ground;labelBackgroundColor=none;" parent="1" vertex="1">
          <mxGeometry x="262.5" y="365" width="22.5" height="20" as="geometry" />
        </mxCell>
        <mxCell id="Xnha2yoSLHK6knwXPfEw-24" value="" style="verticalLabelPosition=bottom;shadow=0;dashed=0;align=center;html=1;verticalAlign=top;shape=mxgraph.electrical.abstract.dac;rotation=-180;" parent="1" vertex="1">
          <mxGeometry x="530" y="222" width="70" height="46" as="geometry" />
        </mxCell>
        <mxCell id="Xnha2yoSLHK6knwXPfEw-26" value="ADCC" style="text;strokeColor=none;align=center;fillColor=none;html=1;verticalAlign=middle;whiteSpace=wrap;rounded=0;" parent="1" vertex="1">
          <mxGeometry x="540" y="230" width="60" height="30" as="geometry" />
        </mxCell>
        <mxCell id="Xnha2yoSLHK6knwXPfEw-28" value="Analog Input 1" style="text;strokeColor=none;align=center;fillColor=none;html=1;verticalAlign=middle;whiteSpace=wrap;rounded=0;" parent="1" vertex="1">
          <mxGeometry x="167.5" y="175" width="60" height="30" as="geometry" />
        </mxCell>
        <mxCell id="Xnha2yoSLHK6knwXPfEw-29" value="Analog Input 2" style="text;strokeColor=none;align=center;fillColor=none;html=1;verticalAlign=middle;whiteSpace=wrap;rounded=0;" parent="1" vertex="1">
          <mxGeometry x="167.5" y="225" width="60" height="30" as="geometry" />
        </mxCell>
        <mxCell id="Xnha2yoSLHK6knwXPfEw-32" value="Internal Resistor Ladder" style="text;strokeColor=none;align=center;fillColor=none;html=1;verticalAlign=middle;whiteSpace=wrap;rounded=0;" parent="1" vertex="1">
          <mxGeometry x="295" y="355" width="110" height="30" as="geometry" />
        </mxCell>
        <mxCell id="Xnha2yoSLHK6knwXPfEw-33" value="OPAMP1" style="text;strokeColor=none;align=center;fillColor=none;html=1;verticalAlign=middle;whiteSpace=wrap;rounded=0;" parent="1" vertex="1">
          <mxGeometry x="428.75" y="205" width="68.75" height="30" as="geometry" />
        </mxCell>
        <mxCell id="Xnha2yoSLHK6knwXPfEw-34" value="" style="pointerEvents=1;verticalLabelPosition=bottom;shadow=0;dashed=0;align=center;html=1;verticalAlign=top;shape=mxgraph.electrical.resistors.potentiometer_2;rotation=-180;" parent="1" vertex="1">
          <mxGeometry x="300" y="310" width="100" height="40" as="geometry" />
        </mxCell>
        <mxCell id="Xnha2yoSLHK6knwXPfEw-36" value="ADCC - Analog-to-Digital Converter with Computation" style="shape=note;whiteSpace=wrap;html=1;backgroundOutline=1;fontColor=#000000;darkOpacity=0.05;fillColor=#FFF9B2;strokeColor=none;fillStyle=solid;direction=west;gradientDirection=north;gradientColor=#FFF2A1;shadow=1;size=20;pointerEvents=1;" parent="1" vertex="1">
          <mxGeometry x="508.75" y="280" width="140" height="60" as="geometry" />
        </mxCell>
        <mxCell id="Xnha2yoSLHK6knwXPfEw-37" value="VDD (5V)" style="text;strokeColor=none;align=left;fillColor=none;html=1;verticalAlign=middle;whiteSpace=wrap;rounded=0;" parent="1" vertex="1">
          <mxGeometry x="547.5" y="115" width="110" height="25" as="geometry" />
        </mxCell>
        <mxCell id="Xnha2yoSLHK6knwXPfEw-40" style="edgeStyle=orthogonalEdgeStyle;rounded=0;orthogonalLoop=1;jettySize=auto;html=1;exitX=0.5;exitY=0;exitDx=0;exitDy=0;entryX=0.343;entryY=0.993;entryDx=0;entryDy=0;entryPerimeter=0;endArrow=none;endFill=0;" parent="1" source="Xnha2yoSLHK6knwXPfEw-39" target="Xnha2yoSLHK6knwXPfEw-24" edge="1">
          <mxGeometry relative="1" as="geometry" />
        </mxCell>
        <mxCell id="Xnha2yoSLHK6knwXPfEw-39" value="" style="shape=trapezoid;perimeter=trapezoidPerimeter;whiteSpace=wrap;html=1;fixedSize=1;rotation=-90;" parent="1" vertex="1">
          <mxGeometry x="600" y="153" width="120" height="22" as="geometry" />
        </mxCell>
        <mxCell id="Xnha2yoSLHK6knwXPfEw-43" style="edgeStyle=orthogonalEdgeStyle;rounded=0;orthogonalLoop=1;jettySize=auto;html=1;exitX=1;exitY=0.5;exitDx=0;exitDy=0;entryX=0.75;entryY=1;entryDx=0;entryDy=0;endArrow=none;endFill=0;" parent="1" source="Xnha2yoSLHK6knwXPfEw-41" target="Xnha2yoSLHK6knwXPfEw-39" edge="1">
          <mxGeometry relative="1" as="geometry" />
        </mxCell>
        <mxCell id="Xnha2yoSLHK6knwXPfEw-44" style="edgeStyle=orthogonalEdgeStyle;rounded=0;orthogonalLoop=1;jettySize=auto;html=1;exitX=0;exitY=0.5;exitDx=0;exitDy=0;entryX=0.612;entryY=0.89;entryDx=0;entryDy=0;entryPerimeter=0;endArrow=none;endFill=0;" parent="1" source="Xnha2yoSLHK6knwXPfEw-41" target="JnMU-w9qaVQYB5pslUgb-44" edge="1">
          <mxGeometry relative="1" as="geometry" />
        </mxCell>
        <mxCell id="Xnha2yoSLHK6knwXPfEw-41" value="" style="ellipse;whiteSpace=wrap;html=1;aspect=fixed;rotation=5;labelBackgroundColor=none;fillColor=#000000;" parent="1" vertex="1">
          <mxGeometry x="517.5" y="80" width="5" height="5" as="geometry" />
        </mxCell>
        <mxCell id="Xnha2yoSLHK6knwXPfEw-48" style="edgeStyle=orthogonalEdgeStyle;rounded=0;orthogonalLoop=1;jettySize=auto;html=1;exitX=0;exitY=0.5;exitDx=0;exitDy=0;entryX=0.25;entryY=1;entryDx=0;entryDy=0;endArrow=none;endFill=0;" parent="1" source="Xnha2yoSLHK6knwXPfEw-45" target="Xnha2yoSLHK6knwXPfEw-39" edge="1">
          <mxGeometry relative="1" as="geometry">
            <Array as="points">
              <mxPoint x="671" y="194" />
            </Array>
          </mxGeometry>
        </mxCell>
        <mxCell id="Xnha2yoSLHK6knwXPfEw-45" value="FVR1&lt;br&gt;(1.024V, 2.048V, 4.096V)" style="rounded=0;whiteSpace=wrap;html=1;labelBackgroundColor=none;" parent="1" vertex="1">
          <mxGeometry x="710" y="160" width="120" height="60" as="geometry" />
        </mxCell>
        <mxCell id="Xnha2yoSLHK6knwXPfEw-49" value="FVR - Fixed Voltage Reference" style="shape=note;whiteSpace=wrap;html=1;backgroundOutline=1;fontColor=#000000;darkOpacity=0.05;fillColor=#FFF9B2;strokeColor=none;fillStyle=solid;direction=west;gradientDirection=north;gradientColor=#FFF2A1;shadow=1;size=20;pointerEvents=1;" parent="1" vertex="1">
          <mxGeometry x="710" y="228" width="140" height="60" as="geometry" />
        </mxCell>
        <mxCell id="Xnha2yoSLHK6knwXPfEw-50" value="PWM - Pulse Width Modulation" style="shape=note;whiteSpace=wrap;html=1;backgroundOutline=1;fontColor=#000000;darkOpacity=0.05;fillColor=#FFF9B2;strokeColor=none;fillStyle=solid;direction=west;gradientDirection=north;gradientColor=#FFF2A1;shadow=1;size=20;pointerEvents=1;" parent="1" vertex="1">
          <mxGeometry x="398" y="660" width="140" height="60" as="geometry" />
        </mxCell>
        <mxCell id="Xnha2yoSLHK6knwXPfEw-51" value="NCO - Numerically Controlled Oscillator" style="shape=note;whiteSpace=wrap;html=1;backgroundOutline=1;fontColor=#000000;darkOpacity=0.05;fillColor=#FFF9B2;strokeColor=none;fillStyle=solid;direction=west;gradientDirection=north;gradientColor=#FFF2A1;shadow=1;size=20;pointerEvents=1;" parent="1" vertex="1">
          <mxGeometry x="180" y="750" width="140" height="60" as="geometry" />
        </mxCell>
        <mxCell id="Xnha2yoSLHK6knwXPfEw-52" value="LFINTOSC - Low Frequency Internal Oscillator" style="shape=note;whiteSpace=wrap;html=1;backgroundOutline=1;fontColor=#000000;darkOpacity=0.05;fillColor=#FFF9B2;strokeColor=none;fillStyle=solid;direction=west;gradientDirection=north;gradientColor=#FFF2A1;shadow=1;size=20;pointerEvents=1;" parent="1" vertex="1">
          <mxGeometry x="30" y="450" width="140" height="60" as="geometry" />
        </mxCell>
        <mxCell id="x3cBH1kzOnK8eQ14zxX7-1" value="WWDT&lt;br&gt;(2s Timeout)" style="rounded=0;whiteSpace=wrap;html=1;labelBackgroundColor=none;" parent="1" vertex="1">
          <mxGeometry x="50" y="520" width="120" height="60" as="geometry" />
        </mxCell>
        <mxCell id="x3cBH1kzOnK8eQ14zxX7-7" style="edgeStyle=orthogonalEdgeStyle;rounded=0;orthogonalLoop=1;jettySize=auto;html=1;exitX=0.5;exitY=0;exitDx=0;exitDy=0;entryX=0.5;entryY=1;entryDx=0;entryDy=0;endArrow=none;endFill=0;" parent="1" source="x3cBH1kzOnK8eQ14zxX7-4" target="x3cBH1kzOnK8eQ14zxX7-1" edge="1">
          <mxGeometry relative="1" as="geometry" />
        </mxCell>
        <mxCell id="x3cBH1kzOnK8eQ14zxX7-4" value="Arm WWDT Reset&lt;br&gt;(SW Interrupt)" style="rounded=0;whiteSpace=wrap;html=1;labelBackgroundColor=none;" parent="1" vertex="1">
          <mxGeometry x="50" y="590" width="120" height="60" as="geometry" />
        </mxCell>
        <mxCell id="VtxOJkRG5hKtJTxu8GJh-1" value="I&lt;sup&gt;2&lt;/sup&gt;C Bus Timeout&lt;br&gt;(1 ms)" style="rounded=0;whiteSpace=wrap;html=1;labelBackgroundColor=none;" vertex="1" parent="1">
          <mxGeometry x="190" y="450" width="120" height="60" as="geometry" />
        </mxCell>
        <mxCell id="VtxOJkRG5hKtJTxu8GJh-3" value="I&lt;sup&gt;2&lt;/sup&gt;C Peripheral&lt;br&gt;(100 kHz)" style="rounded=0;whiteSpace=wrap;html=1;labelBackgroundColor=none;" vertex="1" parent="1">
          <mxGeometry x="700" y="530" width="120" height="60" as="geometry" />
        </mxCell>
        <mxCell id="VtxOJkRG5hKtJTxu8GJh-7" style="edgeStyle=orthogonalEdgeStyle;rounded=0;orthogonalLoop=1;jettySize=auto;html=1;exitX=0.5;exitY=1;exitDx=0;exitDy=0;entryX=0.5;entryY=0;entryDx=0;entryDy=0;" edge="1" parent="1" source="VtxOJkRG5hKtJTxu8GJh-4" target="VtxOJkRG5hKtJTxu8GJh-3">
          <mxGeometry relative="1" as="geometry" />
        </mxCell>
        <mxCell id="VtxOJkRG5hKtJTxu8GJh-4" value="HFINTOSC&lt;br&gt;(64 MHz)" style="rounded=0;whiteSpace=wrap;html=1;labelBackgroundColor=none;" vertex="1" parent="1">
          <mxGeometry x="700" y="450" width="120" height="60" as="geometry" />
        </mxCell>
      </root>
    </mxGraphModel>
  </diagram>
</mxfile>
